# xmcd CD database file
#
# Track frame offsets:
#	150
#	23370
#	51290
#
# Disc length: 991 seconds
#
# Revision: 0
# Processed by: cddbd v1.5.1PL0 Copyright (c) Steve Scherf et al.
# Submitted via: CDex 1.51
#
DISCID=1803dd03
DTITLE=徳永英明 - 恋の行方
DYEAR=1992
DGENRE=JPop
TTITLE0=恋の行方
TTITLE1=Sakura
TTITLE2=恋の行方(カラオケ)
EXTD=YEAR: 1992
EXTT0=
EXTT1=
EXTT2=
PLAYORDER=
